<?xml version="1.0" encoding="UTF-8"?><svg xmlns="http://www.w3.org/2000/svg" viewBox="0 0 127.45 68.63"><g id="a"/><g id="b"><g id="c"><g><rect x="78.43" y="58.82" width="9.8" height="9.81"/><rect x="88.23" y="58.82" width="9.81" height="9.81"/><rect x="98.04" y="58.82" width="9.8" height="9.81"/><rect x="107.84" y="49.02" width="9.8" height="9.8"/><rect x="117.64" y="19.61" width="9.81" height="9.8"/><rect x="117.64" y="29.41" width="9.81" height="9.81"/><rect x="117.64" y="39.22" width="9.81" height="9.8"/><rect x="107.84" y="9.8" width="9.8" height="9.81"/><rect x="78.43" width="9.8" height="9.8"/><rect x="88.23" width="9.81" height="9.8"/><rect x="98.04" width="9.8" height="9.8"/><rect x="68.63" y="29.41" width="9.8" height="9.81"/><rect x="58.82" y="29.41" width="9.81" height="9.81"/><rect x="39.21" y="29.41" width="9.81" height="9.81"/><rect x="78.43" y="29.41" width="9.8" height="9.81"/><rect x="49.02" y="29.41" width="9.8" height="9.81"/><rect x="88.23" y="29.41" width="9.81" height="9.81"/><rect x="29.41" y="29.41" width="9.8" height="9.81"/><rect x="39.21" y="58.82" width="9.81" height="9.81"/><rect x="29.41" y="58.82" width="9.8" height="9.81"/><rect x="19.61" y="58.82" width="9.8" height="9.81"/><rect x="39.21" width="9.81" height="9.8"/><rect x="29.41" width="9.8" height="9.8"/><rect x="19.61" width="9.8" height="9.8"/><rect x="9.8" y="9.8" width="9.81" height="9.81"/><rect x="9.8" y="49.02" width="9.81" height="9.8"/><rect y="39.22" width="9.8" height="9.8"/><rect y="29.41" width="9.8" height="9.81"/><rect y="19.61" width="9.8" height="9.8"/></g></g></g></svg>