<?xml version="1.0" encoding="UTF-8"?><svg xmlns="http://www.w3.org/2000/svg" viewBox="0 0 892.15 49.02"><g id="a"/><g id="b"><g id="c"><g><g><rect y="39.22" width="9.8" height="9.8"/><rect x="19.61" y="39.22" width="9.8" height="9.8"/><rect x="39.21" y="39.22" width="9.81" height="9.8"/><rect x="58.82" y="39.22" width="9.81" height="9.8"/><rect x="78.43" y="39.22" width="9.8" height="9.8"/><rect x="98.04" y="39.22" width="9.8" height="9.8"/><rect x="117.65" y="39.22" width="9.8" height="9.8"/><rect x="137.25" y="39.22" width="9.81" height="9.8"/><rect x="156.86" y="39.22" width="9.81" height="9.8"/><rect x="176.47" y="39.22" width="9.8" height="9.8"/><rect x="176.47" y="19.61" width="9.8" height="9.81"/><rect x="176.47" width="9.8" height="9.81"/><rect x="156.86" y="19.61" width="9.81" height="9.81"/><rect x="156.86" width="9.81" height="9.81"/><rect x="137.25" y="19.61" width="9.81" height="9.81"/><rect x="137.25" width="9.81" height="9.81"/><rect x="117.65" y="19.61" width="9.8" height="9.81"/><rect x="117.65" width="9.8" height="9.81"/><rect x="98.04" y="19.61" width="9.8" height="9.81"/><rect x="98.04" width="9.8" height="9.81"/><rect x="78.43" y="19.61" width="9.8" height="9.81"/><rect x="78.43" width="9.8" height="9.81"/><rect x="58.82" y="19.61" width="9.81" height="9.81"/><rect x="58.82" width="9.81" height="9.81"/><rect x="39.21" y="19.61" width="9.81" height="9.81"/><rect x="39.21" width="9.81" height="9.81"/><rect x="19.61" y="19.61" width="9.8" height="9.81"/><rect x="19.61" width="9.8" height="9.81"/><rect y="19.61" width="9.8" height="9.81"/><rect width="9.8" height="9.81"/></g><g><rect x="176.47" y="39.22" width="9.8" height="9.8"/><rect x="196.08" y="39.22" width="9.8" height="9.8"/><rect x="215.68" y="39.22" width="9.81" height="9.8"/><rect x="235.29" y="39.22" width="9.81" height="9.8"/><rect x="254.9" y="39.22" width="9.8" height="9.8"/><rect x="274.51" y="39.22" width="9.8" height="9.8"/><rect x="294.12" y="39.22" width="9.8" height="9.8"/><rect x="313.72" y="39.22" width="9.81" height="9.8"/><rect x="333.33" y="39.22" width="9.81" height="9.8"/><rect x="352.94" y="39.22" width="9.8" height="9.8"/><rect x="352.94" y="19.61" width="9.8" height="9.81"/><rect x="352.94" width="9.8" height="9.81"/><rect x="333.33" y="19.61" width="9.81" height="9.81"/><rect x="333.33" width="9.81" height="9.81"/><rect x="313.72" y="19.61" width="9.81" height="9.81"/><rect x="313.72" width="9.81" height="9.81"/><rect x="294.12" y="19.61" width="9.8" height="9.81"/><rect x="294.12" width="9.8" height="9.81"/><rect x="274.51" y="19.61" width="9.8" height="9.81"/><rect x="274.51" width="9.8" height="9.81"/><rect x="254.9" y="19.61" width="9.8" height="9.81"/><rect x="254.9" width="9.8" height="9.81"/><rect x="235.29" y="19.61" width="9.81" height="9.81"/><rect x="235.29" width="9.81" height="9.81"/><rect x="215.68" y="19.61" width="9.81" height="9.81"/><rect x="215.68" width="9.81" height="9.81"/><rect x="196.08" y="19.61" width="9.8" height="9.81"/><rect x="196.08" width="9.8" height="9.81"/><rect x="176.47" y="19.61" width="9.8" height="9.81"/><rect x="176.47" width="9.8" height="9.81"/></g><g><rect x="352.94" y="39.22" width="9.8" height="9.8"/><rect x="372.55" y="39.22" width="9.8" height="9.8"/><rect x="392.15" y="39.22" width="9.81" height="9.8"/><rect x="411.76" y="39.22" width="9.81" height="9.8"/><rect x="431.37" y="39.22" width="9.8" height="9.8"/><rect x="450.98" y="39.22" width="9.8" height="9.8"/><rect x="470.59" y="39.22" width="9.8" height="9.8"/><rect x="490.19" y="39.22" width="9.81" height="9.8"/><rect x="509.8" y="39.22" width="9.81" height="9.8"/><rect x="529.41" y="39.22" width="9.8" height="9.8"/><rect x="529.41" y="19.61" width="9.8" height="9.81"/><rect x="529.41" width="9.8" height="9.81"/><rect x="509.8" y="19.61" width="9.81" height="9.81"/><rect x="509.8" width="9.81" height="9.81"/><rect x="490.19" y="19.61" width="9.81" height="9.81"/><rect x="490.19" width="9.81" height="9.81"/><rect x="470.59" y="19.61" width="9.8" height="9.81"/><rect x="470.59" width="9.8" height="9.81"/><rect x="450.98" y="19.61" width="9.8" height="9.81"/><rect x="450.98" width="9.8" height="9.81"/><rect x="431.37" y="19.61" width="9.8" height="9.81"/><rect x="431.37" width="9.8" height="9.81"/><rect x="411.76" y="19.61" width="9.81" height="9.81"/><rect x="411.76" width="9.81" height="9.81"/><rect x="392.15" y="19.61" width="9.81" height="9.81"/><rect x="392.15" width="9.81" height="9.81"/><rect x="372.55" y="19.61" width="9.8" height="9.81"/><rect x="372.55" width="9.8" height="9.81"/><rect x="352.94" y="19.61" width="9.8" height="9.81"/><rect x="352.94" width="9.8" height="9.81"/></g><g><rect x="529.41" y="39.22" width="9.8" height="9.8"/><rect x="549.02" y="39.22" width="9.8" height="9.8"/><rect x="568.62" y="39.22" width="9.81" height="9.8"/><rect x="588.23" y="39.22" width="9.81" height="9.8"/><rect x="607.84" y="39.22" width="9.8" height="9.8"/><rect x="627.45" y="39.22" width="9.8" height="9.8"/><rect x="647.06" y="39.22" width="9.8" height="9.8"/><rect x="666.66" y="39.22" width="9.81" height="9.8"/><rect x="686.27" y="39.22" width="9.81" height="9.8"/><rect x="705.88" y="39.22" width="9.8" height="9.8"/><rect x="705.88" y="19.61" width="9.8" height="9.81"/><rect x="705.88" width="9.8" height="9.81"/><rect x="686.27" y="19.61" width="9.81" height="9.81"/><rect x="686.27" width="9.81" height="9.81"/><rect x="666.66" y="19.61" width="9.81" height="9.81"/><rect x="666.66" width="9.81" height="9.81"/><rect x="647.06" y="19.61" width="9.8" height="9.81"/><rect x="647.06" width="9.8" height="9.81"/><rect x="627.45" y="19.61" width="9.8" height="9.81"/><rect x="627.45" width="9.8" height="9.81"/><rect x="607.84" y="19.61" width="9.8" height="9.81"/><rect x="607.84" width="9.8" height="9.81"/><rect x="588.23" y="19.61" width="9.81" height="9.81"/><rect x="588.23" width="9.81" height="9.81"/><rect x="568.62" y="19.61" width="9.81" height="9.81"/><rect x="568.62" width="9.81" height="9.81"/><rect x="549.02" y="19.61" width="9.8" height="9.81"/><rect x="549.02" width="9.8" height="9.81"/><rect x="529.41" y="19.61" width="9.8" height="9.81"/><rect x="529.41" width="9.8" height="9.81"/></g><g><rect x="705.88" y="39.22" width="9.8" height="9.8"/><rect x="725.49" y="39.22" width="9.8" height="9.8"/><rect x="745.09" y="39.22" width="9.81" height="9.8"/><rect x="764.7" y="39.22" width="9.81" height="9.8"/><rect x="784.31" y="39.22" width="9.8" height="9.8"/><rect x="803.92" y="39.22" width="9.8" height="9.8"/><rect x="823.53" y="39.22" width="9.8" height="9.8"/><rect x="843.13" y="39.22" width="9.81" height="9.8"/><rect x="862.74" y="39.22" width="9.81" height="9.8"/><rect x="882.35" y="39.22" width="9.8" height="9.8"/><rect x="882.35" y="19.61" width="9.8" height="9.81"/><rect x="882.35" width="9.8" height="9.81"/><rect x="862.74" y="19.61" width="9.81" height="9.81"/><rect x="862.74" width="9.81" height="9.81"/><rect x="843.13" y="19.61" width="9.81" height="9.81"/><rect x="843.13" width="9.81" height="9.81"/><rect x="823.53" y="19.61" width="9.8" height="9.81"/><rect x="823.53" width="9.8" height="9.81"/><rect x="803.92" y="19.61" width="9.8" height="9.81"/><rect x="803.92" width="9.8" height="9.81"/><rect x="784.31" y="19.61" width="9.8" height="9.81"/><rect x="784.31" width="9.8" height="9.81"/><rect x="764.7" y="19.61" width="9.81" height="9.81"/><rect x="764.7" width="9.81" height="9.81"/><rect x="745.09" y="19.61" width="9.81" height="9.81"/><rect x="745.09" width="9.81" height="9.81"/><rect x="725.49" y="19.61" width="9.8" height="9.81"/><rect x="725.49" width="9.8" height="9.81"/><rect x="705.88" y="19.61" width="9.8" height="9.81"/><rect x="705.88" width="9.8" height="9.81"/></g></g></g></g></svg>