<?xml version="1.0" encoding="UTF-8"?><svg xmlns="http://www.w3.org/2000/svg" viewBox="0 0 107.85 78.43"><defs><style>.d{fill:#fff;}</style></defs><g id="a"/><g id="b"><g id="c"><g><rect class="d" x="98.04" y="58.82" width="9.81" height="9.81"/><rect class="d" x="98.04" y="49.02" width="9.81" height="9.8"/><rect class="d" x="98.04" y="39.21" width="9.81" height="9.81"/><rect class="d" x="98.04" y="29.41" width="9.81" height="9.8"/><rect class="d" x="98.04" y="19.61" width="9.81" height="9.8"/><rect class="d" x="98.04" y="9.8" width="9.81" height="9.81"/><rect class="d" x="88.24" y="58.82" width="9.8" height="9.81"/><rect class="d" x="88.24" y="9.8" width="9.8" height="9.81"/><rect class="d" x="78.43" y="49.02" width="9.81" height="9.8"/><rect class="d" x="78.43" y="19.61" width="9.81" height="9.8"/><rect class="d" x="68.63" y="58.82" width="9.8" height="9.81"/><rect class="d" x="68.63" y="49.02" width="9.8" height="9.8"/><rect class="d" x="68.63" y="39.21" width="9.8" height="9.81"/><rect class="d" x="68.63" y="29.41" width="9.8" height="9.8"/><rect class="d" x="68.63" y="19.61" width="9.8" height="9.8"/><rect class="d" x="68.63" y="9.8" width="9.8" height="9.81"/><rect class="d" x="58.83" y="68.63" width="9.8" height="9.8"/><rect class="d" x="58.83" width="9.8" height="9.8"/><rect class="d" x="49.02" y="68.63" width="9.81" height="9.8"/><rect class="d" x="49.02" width="9.81" height="9.8"/><rect class="d" x="39.22" y="68.63" width="9.8" height="9.8"/><rect class="d" x="39.22" width="9.8" height="9.8"/><rect class="d" x="29.42" y="68.63" width="9.8" height="9.8"/><rect class="d" x="29.42" width="9.8" height="9.8"/><rect class="d" x="19.61" y="68.63" width="9.81" height="9.8"/><rect class="d" x="19.61" width="9.81" height="9.8"/><rect class="d" x="9.81" y="68.63" width="9.8" height="9.8"/><rect class="d" x="9.81" width="9.8" height="9.8"/><rect class="d" y="58.82" width="9.81" height="9.81"/><rect class="d" y="49.02" width="9.81" height="9.8"/><rect class="d" y="39.21" width="9.81" height="9.81"/><rect class="d" y="29.41" width="9.81" height="9.8"/><rect class="d" y="19.61" width="9.81" height="9.8"/><rect class="d" y="9.8" width="9.81" height="9.81"/></g></g></g></svg>