<?xml version="1.0" encoding="UTF-8"?><svg xmlns="http://www.w3.org/2000/svg" viewBox="0 0 68.63 88.24"><defs><style>.d{fill:#fff;}</style></defs><g id="a"/><g id="b"><g id="c"><g><rect class="d" x="58.83" y="78.44" width="9.8" height="9.8"/><rect class="d" x="58.83" y="68.63" width="9.8" height="9.81"/><rect class="d" x="58.83" y="58.83" width="9.8" height="9.8"/><rect class="d" x="58.83" y="49.02" width="9.8" height="9.81"/><rect class="d" x="58.83" y="39.22" width="9.8" height="9.8"/><rect class="d" x="58.83" y="29.42" width="9.8" height="9.8"/><rect class="d" x="49.02" y="78.44" width="9.81" height="9.8"/><rect class="d" x="49.02" y="29.42" width="9.81" height="9.8"/><rect class="d" x="49.02" y="19.61" width="9.81" height="9.81"/><rect class="d" x="39.22" y="78.44" width="9.8" height="9.8"/><rect class="d" x="39.22" y="29.42" width="9.8" height="9.8"/><rect class="d" x="39.22" y="9.81" width="9.8" height="9.8"/><rect class="d" x="29.42" y="78.44" width="9.8" height="9.8"/><rect class="d" x="29.42" y="29.42" width="9.8" height="9.8"/><rect class="d" x="29.42" y="19.61" width="9.8" height="9.81"/><rect class="d" x="29.42" y="9.81" width="9.8" height="9.8"/><rect class="d" x="29.42" width="9.8" height="9.81"/><rect class="d" x="19.61" y="78.44" width="9.81" height="9.8"/><rect class="d" x="19.61" y="0" width="9.81" height="9.81"/><rect class="d" x="9.81" y="78.44" width="9.8" height="9.8"/><rect class="d" x="9.81" y="0" width="9.8" height="9.81"/><rect class="d" y="78.44" width="9.81" height="9.8"/><rect class="d" x="0" y="68.63" width="9.81" height="9.81"/><rect class="d" x="0" y="58.83" width="9.81" height="9.8"/><rect class="d" x="0" y="49.02" width="9.81" height="9.81"/><rect class="d" x="0" y="39.22" width="9.81" height="9.8"/><rect class="d" x="0" y="29.42" width="9.81" height="9.8"/><rect class="d" x="0" y="19.61" width="9.81" height="9.81"/><rect class="d" x="0" y="9.81" width="9.81" height="9.8"/><rect class="d" width="9.81" height="9.81"/></g></g></g></svg>